<?xml version="1.0" encoding="UTF-8" standalone="no"?>
<svg
   xmlns:dc="http://purl.org/dc/elements/1.1/"
   xmlns:cc="http://creativecommons.org/ns#"
   xmlns:rdf="http://www.w3.org/1999/02/22-rdf-syntax-ns#"
   xmlns:svg="http://www.w3.org/2000/svg"
   xmlns="http://www.w3.org/2000/svg"
   xmlns:sodipodi="http://sodipodi.sourceforge.net/DTD/sodipodi-0.dtd"
   xmlns:inkscape="http://www.inkscape.org/namespaces/inkscape"
   version="1.1"
   x="0px"
   y="0px"
   width="200"
   height="200"
   xml:space="preserve"
   id="svg14"
   sodipodi:docname="logo-vector-textless.svg"
   inkscape:version="1.0.2 (e86c870879, 2021-01-15)"><metadata
   id="metadata20"><rdf:RDF><cc:Work
       rdf:about=""><dc:format>image/svg+xml</dc:format><dc:type
         rdf:resource="http://purl.org/dc/dcmitype/StillImage" /><dc:title></dc:title></cc:Work></rdf:RDF></metadata><defs
   id="defs18" /><sodipodi:namedview
   pagecolor="#ffffff"
   bordercolor="#666666"
   borderopacity="1"
   objecttolerance="10"
   gridtolerance="10"
   guidetolerance="10"
   inkscape:pageopacity="0"
   inkscape:pageshadow="2"
   inkscape:window-width="1920"
   inkscape:window-height="1025"
   id="namedview16"
   showgrid="false"
   inkscape:zoom="2.7952218"
   inkscape:cx="95.191896"
   inkscape:cy="78.259525"
   inkscape:window-x="0"
   inkscape:window-y="0"
   inkscape:window-maximized="1"
   inkscape:current-layer="svg14"
   fit-margin-top="10.4"
   fit-margin-left="10"
   fit-margin-right="10"
   fit-margin-bottom="10"
   lock-margins="false" /><g
   transform="matrix(1.5700675,0,0,1.5700706,14.808138,17.499856)"
   id="g8"><path
     d="M 4.241,0 A 4.24,4.24 0 0 0 0,4.242 v 77.864 a 4.242,4.242 0 0 0 4.241,4.242 h 28.39 L 66.911,0 Z M 29.701,68.895 6.395,43.133 29.702,17.371 l 6.256,4.16 -19.543,21.602 19.542,21.604 z"
     fill="#0973b9"
     id="path2" /><path
     d="m 47.451,85.311 v 9.766 H 33.389 L 28.38,105.09 61.067,105.088 H 80.141 L 75.131,95.077 H 61.067 v -9.766"
     fill="#333333"
     id="path4" /><path
     d="M 104.275,0 H 76.352 L 42.083,86.348 h 5.368 v 8.729 H 33.389 l -5.011,10.014 32.689,-0.002 H 80.14 L 75.13,95.077 H 61.067 v -8.729 h 43.208 c 2.345,0 4.245,-1.9 4.245,-4.242 V 4.242 A 4.242,4.242 0 0 0 104.275,0 Z M 78.815,68.895 72.56,64.737 92.105,43.133 72.561,21.531 l 6.255,-4.16 23.308,25.762 z"
     fill="#333333"
     id="path6" /></g>

</svg>
